<svg xmlns:xlink="http://www.w3.org/1999/xlink" xmlns="http://www.w3.org/2000/svg" width="114" height="30" viewBox="0 0 114 30" fill="none">
<path d="M21.94 6.89C22.84 4.73 22.76 3.05 21.71 1.85C20.65 0.66 18.66 0.05 15.73 0.05H5.81L4.91 2.21H11.74C15.23 2.21 16.24 3.95 15.03 6.82C14.34 8.48 13.72 10.01 12.27 10.7C10.94 11.32 9.57 11.51 7.13 11.51H3.97L6.33 5.9H3.35L0 13.87H8.99C11.51 13.87 13.5 13.64 14.97 13.17C16.58 12.65 18.02 11.81 19.29 10.62C20.48 9.49 21.36 8.25 21.93 6.87M83.96 0.02L80.27 0.03L66.11 13.28L71.64 0.03H65.57L58.24 5.77L54.47 8.87H54.3L56.08 4.35L53.92 0.02H47.82L42.28 13.29L39.09 0.02H32.41L17.65 13.85H21.34L25.11 10.23H34.41L35.15 13.85H45.03L48.6 5.3C48.78 4.87 48.95 4.38 49.12 3.83C49.14 4.28 49.26 4.75 49.48 5.25L52.62 12.38H53.15L62.14 5.28C62.48 5.01 62.99 4.53 63.67 3.83C63.32 4.47 63.08 4.96 62.94 5.3L59.37 13.85H65.89H72.77L76.5 10.22H86.16L86.93 13.85H90.32L87.01 0.01H83.97L83.96 0.02ZM27.05 8.35L32.93 2.72L33.99 8.35H27.04H27.05ZM78.44 8.33L84.48 2.45L85.74 8.33H78.44ZM113.38 0.01H103.37C100.44 0.01 97.94 0.61 95.88 1.81C93.82 3.01 92.34 4.69 91.44 6.85C90.86 8.22 90.7 9.48 90.95 10.6C91.24 11.79 91.97 12.64 93.15 13.15C94.22 13.61 96.03 13.85 98.55 13.85H107.53L108.43 11.65H103.37C100.93 11.65 99.31 11.34 98.5 10.71C97.62 10.03 97.72 8.46 98.4 6.79C99.61 3.91 102.13 2.11 105.61 2.11H109.53L108.63 4.28H111.6L113.38 0V0.01Z" fill="white"/>
<path d="M38.6072 29.014C38.0862 29.014 37.6069 28.9222 37.1693 28.7385C36.7318 28.5548 36.351 28.2992 36.0271 27.9719C35.7031 27.6446 35.4509 27.2622 35.2705 26.8246C35.0902 26.3871 35 25.9145 35 25.4068C35 24.7655 35.1369 24.1877 35.4108 23.6733C35.6847 23.159 36.0705 22.7515 36.5681 22.4509C37.0658 22.1503 37.6453 22 38.3066 22C38.9345 22 39.4489 22.0818 39.8497 22.2455C40.2505 22.4092 40.5444 22.5979 40.7314 22.8116C40.865 22.9786 40.9419 23.1957 40.9619 23.4629C40.9819 23.7301 40.992 23.9773 40.992 24.2044H40.6914C40.5644 23.5898 40.3306 23.1439 39.99 22.8667C39.6493 22.5895 39.1884 22.4509 38.6072 22.4509C38.2064 22.4509 37.8674 22.5311 37.5902 22.6914C37.3129 22.8517 37.0858 23.0721 36.9088 23.3527C36.7318 23.6333 36.6032 23.9506 36.523 24.3046C36.4429 24.6586 36.4028 25.026 36.4028 25.4068C36.4028 26.2151 36.5013 26.853 36.6984 27.3206C36.8955 27.7882 37.161 28.1205 37.495 28.3176C37.829 28.5147 38.1997 28.6132 38.6072 28.6132C38.9078 28.6132 39.165 28.5898 39.3787 28.5431C39.5925 28.4963 39.7862 28.4328 39.9599 28.3527V26.5691C39.9599 26.4288 39.9816 26.2886 40.025 26.1483C40.0685 26.008 40.157 25.8761 40.2906 25.7525C40.4242 25.6289 40.6195 25.5304 40.8767 25.4569C41.1339 25.3834 41.4763 25.3467 41.9038 25.3467V25.5972C41.6767 25.5972 41.513 25.6807 41.4128 25.8477C41.3126 26.0147 41.2625 26.2485 41.2625 26.5491V28.3427C40.8751 28.5765 40.4642 28.7468 40.03 28.8537C39.5958 28.9606 39.1216 29.014 38.6072 29.014Z" fill="white"/>
<path d="M50.6052 28.9138C50.3714 28.9138 50.1476 28.8671 49.9338 28.7736C49.7201 28.68 49.5113 28.5281 49.3076 28.3176C49.1038 28.1072 48.8918 27.8217 48.6713 27.4609L47.6693 25.7876H47.2685V28.8136H45.9559V23.503C45.9559 23.2024 45.9141 22.9603 45.8306 22.7766C45.7471 22.5929 45.5551 22.501 45.2545 22.501H45.1543V22.2004H47.9198C48.1002 22.2004 48.3089 22.2121 48.5461 22.2355C48.7832 22.2589 49.022 22.3056 49.2625 22.3758C49.503 22.4459 49.7268 22.5478 49.9338 22.6814C50.1409 22.815 50.3079 22.9903 50.4348 23.2074C50.5618 23.4245 50.6252 23.6934 50.6252 24.0141C50.6252 24.3681 50.5467 24.657 50.3897 24.8808C50.2328 25.1046 50.0307 25.2799 49.7835 25.4068C49.5364 25.5338 49.2759 25.634 49.002 25.7074L50.0541 27.4609C50.3079 27.8885 50.5417 28.1724 50.7555 28.3126C50.9692 28.4529 51.1496 28.5364 51.2966 28.5631V28.8136C51.2431 28.8404 51.1479 28.8637 51.011 28.8838C50.874 28.9038 50.7388 28.9138 50.6052 28.9138ZM47.2685 25.3868H47.8697C48.03 25.3868 48.1904 25.3634 48.3507 25.3167C48.511 25.2699 48.6563 25.1931 48.7865 25.0862C48.9168 24.9793 49.022 24.8357 49.1022 24.6553C49.1823 24.475 49.2224 24.2545 49.2224 23.994C49.2224 23.7335 49.184 23.5147 49.1072 23.3377C49.0304 23.1607 48.9268 23.0171 48.7966 22.9068C48.6663 22.7966 48.5227 22.7181 48.3657 22.6714C48.2087 22.6246 48.0501 22.6012 47.8898 22.6012C47.8363 22.6012 47.7578 22.6046 47.6543 22.6113C47.5507 22.6179 47.4222 22.638 47.2685 22.6714V25.3868Z" fill="white"/>
<path d="M56.8536 29.014C56.1923 29.014 55.6128 28.8587 55.1151 28.5481C54.6175 28.2374 54.2317 27.8183 53.9578 27.2906C53.6839 26.7628 53.547 26.1683 53.547 25.507C53.547 24.8457 53.6839 24.2512 53.9578 23.7234C54.2317 23.1957 54.6175 22.7766 55.1151 22.4659C55.6128 22.1553 56.1923 22 56.8536 22C57.5216 22 58.1011 22.1553 58.5921 22.4659C59.083 22.7766 59.4655 23.1957 59.7394 23.7234C60.0132 24.2512 60.1502 24.8457 60.1502 25.507C60.1502 26.1683 60.0132 26.7628 59.7394 27.2906C59.4655 27.8183 59.083 28.2374 58.5921 28.5481C58.1011 28.8587 57.5216 29.014 56.8536 29.014ZM56.8536 28.5631C57.2611 28.5631 57.6068 28.4445 57.8907 28.2074C58.1746 27.9702 58.3917 27.6229 58.542 27.1653C58.6923 26.7077 58.7674 26.155 58.7674 25.507C58.7674 24.8524 58.6923 24.2979 58.542 23.8437C58.3917 23.3894 58.1746 23.0437 57.8907 22.8066C57.6068 22.5695 57.2611 22.4509 56.8536 22.4509C56.4528 22.4509 56.1104 22.5695 55.8265 22.8066C55.5426 23.0437 55.3255 23.3894 55.1752 23.8437C55.0249 24.2979 54.9498 24.8524 54.9498 25.507C54.9498 26.155 55.0249 26.7077 55.1752 27.1653C55.3255 27.6229 55.5426 27.9702 55.8265 28.2074C56.1104 28.4445 56.4528 28.5631 56.8536 28.5631Z" fill="white"/>
<path d="M67.0781 28.9138C66.4769 28.9138 65.9759 28.8036 65.5751 28.5832C65.1743 28.3627 64.8737 28.0304 64.6733 27.5862C64.4729 27.142 64.3727 26.5892 64.3727 25.9279V23.503C64.3727 23.2158 64.3359 22.982 64.2624 22.8016C64.189 22.6213 64.022 22.5211 63.7614 22.501H63.6713V22.2004H64.7735C65.0073 22.2004 65.1893 22.2405 65.3196 22.3207C65.4498 22.4008 65.5417 22.5344 65.5951 22.7215C65.6485 22.9085 65.6753 23.169 65.6753 23.503L65.6853 26.2285C65.692 26.9232 65.8272 27.4693 66.0911 27.8667C66.355 28.2642 66.7507 28.4629 67.2785 28.4629C67.7327 28.4629 68.1034 28.3728 68.3907 28.1924C68.6779 28.012 68.89 27.7348 69.027 27.3607C69.1639 26.9867 69.2324 26.509 69.2324 25.9279V22.2004H69.7334V25.9279C69.7334 26.5558 69.6482 27.0919 69.4779 27.5361C69.3075 27.9803 69.0286 28.321 68.6412 28.5581C68.2537 28.7953 67.7327 28.9138 67.0781 28.9138Z" fill="white"/>
<path d="M74.3567 28.8136V23.503C74.3567 23.2024 74.3149 22.9603 74.2314 22.7766C74.1479 22.5929 73.9559 22.501 73.6553 22.501H73.5551V22.2004H76.3106C76.4909 22.2004 76.698 22.2121 76.9318 22.2355C77.1656 22.2589 77.4044 22.3073 77.6482 22.3808C77.892 22.4543 78.1175 22.5645 78.3246 22.7115C78.5317 22.8584 78.6987 23.0538 78.8256 23.2976C78.9525 23.5414 79.016 23.8471 79.016 24.2145C79.016 24.5618 78.9525 24.8507 78.8256 25.0812C78.6987 25.3116 78.5367 25.497 78.3396 25.6373C78.1425 25.7776 77.9338 25.8845 77.7134 25.9579C77.4929 26.0314 77.2842 26.0798 77.0871 26.1032C76.89 26.1266 76.7314 26.1383 76.6112 26.1383H75.6593V28.8136H74.3567ZM75.6593 25.7375H76.2605C76.4341 25.7375 76.6011 25.7141 76.7615 25.6674C76.9218 25.6206 77.0654 25.5371 77.1923 25.4169C77.3192 25.2966 77.4211 25.1346 77.4979 24.9309C77.5747 24.7271 77.6132 24.4716 77.6132 24.1644C77.6132 23.8571 77.5747 23.6016 77.4979 23.3978C77.4211 23.1941 77.3209 23.0338 77.1973 22.9169C77.0737 22.8 76.9351 22.7181 76.7815 22.6714C76.6279 22.6246 76.4709 22.6012 76.3106 22.6012C76.2371 22.6012 76.1486 22.6046 76.045 22.6113C75.9415 22.6179 75.8129 22.638 75.6593 22.6714V25.7375Z" fill="white"/>
</svg>