<svg xmlns:xlink="http://www.w3.org/1999/xlink" xmlns="http://www.w3.org/2000/svg" width="54" height="32" viewBox="0 0 54 32" fill="none">
  <path d="M52.2754 15.8159C54.4256 10.8164 54.2398 6.93395 51.7205 4.15742C49.2025 1.39072 44.4483 0 37.4656 0H13.82L11.6838 5.00928H27.9649C36.2685 5.00928 38.6766 9.028 35.8097 15.6845C34.155 19.5351 32.69 23.0776 29.234 24.6536C26.0713 26.0996 22.8037 26.5231 16.9878 26.5231L9.459 26.5083L15.0828 13.5475H7.98889L0 32H21.431C27.4403 32 32.1831 31.4587 35.682 30.3834C39.5134 29.1879 42.9453 27.2264 45.9778 24.4941C48.8043 21.8894 50.9026 19.0012 52.2754 15.8159Z" fill="#222"/>
</svg>